<svg version="1.1" id="Layer_1" xmlns="http://www.w3.org/2000/svg" x="0" y="0" viewBox="0 0 2500 1002" xml:space="preserve"><style>.st0{fill:#f1f1f1}</style><path class="st0" d="M1555.9 488.7c-104.5 3.5-169.3 22.2-169.3 91 0 44.6 36 92.8 125.6 92.8 120.9 0 185.5-65.9 185.5-173.9v-12c-42.4.1-94.7.5-141.8 2.1zm256.9 142.8c0 33.5 1 66.7 3.8 96.1h-106.9c-2.7-23.9-3.9-48-3.8-72.1-57.9 71.2-126.8 91.8-222.4 91.8-142.1-.2-218.1-74.7-218.1-161.9 0-125.5 103.3-169.8 282.6-173.9 49-1.1 104.1-1.3 149.6-1.3v-12c0-84.1-53.9-118.7-147.2-118.7-69.3 0-120.1 28.7-125.7 78.3h-121.1c12.9-123.6 142.7-154.9 256.9-154.9 136.8 0 252.2 48.6 252.2 193.4l.1 235.2zM559.5 427.3c-4.4-108.1-82.3-148.1-165.4-148.1-89.5 0-161.5 45-173.5 148.1h338.9zm-341.7 77.1C224 609 296.1 670.9 395.3 670.9c68.7 0 129.8-28 150.2-88.9H665c-24.1 123-155 165-268 165-205.5 0-296.5-113.2-296.5-265.8 0-168.1 94.2-278.6 298.4-278.6 162.5 0 281.6 85.6 281.6 270.7v31.1H217.8z"/><path class="st0" d="M976 668.2c107.1 0 180.1-77.1 180.1-193.4S1082.9 281.5 976 281.5s-180.1 77.1-180.1 193.4S869.1 668.2 976 668.2zM680.6 0h115.2v289.4c56.4-67.3 134.3-86.8 210.8-86.8 128.4 0 270.9 86.6 270.9 273.7 0 156.1-113.4 270.7-273.1 270.7-84.1 0-162.2-30-210.8-89.4 0 23.5-1.3 46.9-4 70.3H677c1.9-36 4-82.1 4-119L680.6 0zm1718.9 221.8l-356.2 699.6H1914l102.4-194.3-267.7-505.2h134.7l197.3 394.9L2277.4 222l122.1-.2z"/></svg>