<svg version="1.1" id="Layer_1" xmlns="http://www.w3.org/2000/svg" x="0" y="0" viewBox="0 0 100 100" xml:space="preserve"><style>.st0{fill:#f1f1f1}</style><g id="ELEMENTS"><path class="st0" d="M70 27.2c-2.4 0-4.4 2-4.4 4.4 0 2.4 2 4.4 4.4 4.4 2.4 0 4.4-2 4.4-4.4 0-2.4-1.9-4.3-4.4-4.4zm-19.7 5.7c-10.3 0-18.6 8.3-18.6 18.6S40.1 70 50.3 70s18.6-8.3 18.6-18.6c0-10.2-8.3-18.5-18.6-18.5zm0 30.5c-6.6 0-11.9-5.3-11.9-11.9s5.3-11.9 11.9-11.9 11.9 5.3 11.9 11.9c0 6.5-5.3 11.9-11.9 11.9z"/><path class="st0" d="M65.1 89.2H35c-12.5 0-22.7-10.1-22.7-22.6V36.4c0-12.5 10.2-22.7 22.7-22.6h30.1c12.5 0 22.6 10.2 22.6 22.6v30.1c0 12.5-10.2 22.7-22.6 22.7zM35 20.9c-8.6 0-15.6 6.9-15.6 15.5v30.1c0 8.6 7 15.6 15.6 15.6h30.1c8.6 0 15.5-7 15.5-15.6V36.4c0-8.6-7-15.5-15.5-15.5H35z"/></g></svg>