<svg xmlns="http://www.w3.org/2000/svg" viewBox="0 0 403.9 137.4"><path d="M54.7 30.6c13.1 0 25.1 7.1 23.5 24.8-2 21-13.3 32.6-31 32.7H31.6c-2.2 0-3.3 1.8-3.9 5.5l-3 19.1c-.5 2.9-1.9 4.3-4.1 4.3H6.2c-2.3 0-3.1-1.5-2.6-4.8l11.9-76.4c.6-3.8 2-5.2 4.6-5.2h34.6zM31.2 71.5H43c7.4-.3 12.2-5.4 12.7-14.5.3-5.7-3.5-9.7-9.6-9.7H35l-3.8 24.2zm86.2 39.6c1.3-1.2 2.7-1.8 2.5-.3l-.5 3.5c-.2 1.9.5 2.8 2.2 2.8h12.8c2.2 0 3.2-.9 3.7-4.2l7.9-49.6c.4-2.5-.2-3.7-2.1-3.7h-14.1c-1.3 0-1.9.7-2.2 2.6l-.5 3c-.3 1.6-1 1.9-1.7.3-2.4-5.7-8.5-8.2-17-8C88.7 58 75.3 73 73.9 92.2c-1.1 14.9 9.6 26.6 23.6 26.6 10.2 0 14.8-3 19.9-7.7zm-10.8-7.6c-8.5 0-14.4-6.8-13.2-15.1s9.2-15.1 17.7-15.1 14.4 6.8 13.2 15.1-9.1 15.1-17.7 15.1zm64.5-44h-13c-2.7 0-3.8 2-2.9 4.5l16.1 47.3-15.8 22.5c-1.3 1.9-.3 3.6 1.6 3.6h14.6c1.7.2 3.4-.6 4.3-2.1l49.6-71.2c1.5-2.2.8-4.5-1.7-4.5h-13.8c-2.4 0-3.3.9-4.7 2.9l-20.7 30-9.3-30.1c-.4-1.9-1.8-2.9-4.3-2.9zm106.2-28.9c13.1 0 25.1 7.1 23.5 24.8-2 21-13.3 32.6-31 32.7h-15.5c-2.2 0-3.3 1.8-3.9 5.5l-3 19.1c-.5 2.9-1.9 4.3-4.1 4.3h-14.4c-2.3 0-3.1-1.5-2.6-4.8l11.9-76.5c.6-3.8 2-5.2 4.6-5.2l34.5.1zm-23.5 40.9h11.8c7.3-.3 12.2-5.4 12.7-14.5.3-5.7-3.5-9.7-9.6-9.7h-11.1l-3.8 24.2zm86.2 39.6c1.3-1.2 2.7-1.8 2.5-.3l-.5 3.5c-.2 1.9.5 2.8 2.2 2.8H357c2.2 0 3.2-.9 3.7-4.2l7.9-49.6c.4-2.5-.2-3.7-2.1-3.7h-14.1c-1.3 0-1.9.7-2.2 2.6l-.5 3c-.3 1.6-1 1.9-1.7.3-2.4-5.7-8.5-8.2-17-8-19.7.5-33 15.5-34.4 34.7-1.1 14.9 9.6 26.6 23.6 26.6 10.2 0 14.8-3 19.8-7.7zm-10.7-7.6c-8.5 0-14.4-6.8-13.2-15.1s9.2-15.1 17.7-15.1 14.4 6.7 13.2 15-9.2 15.2-17.7 15.2zm59.1 13.7h-14.8c-1 0-1.8-.7-1.8-1.7v-.3l13-82.4c.3-1.2 1.3-2 2.5-2h14.8c1 0 1.8.7 1.8 1.7v.3l-13 82.4c-.3 1.2-1.3 2-2.5 2z" fill="#f1f1f1"/></svg>