<svg xmlns="http://www.w3.org/2000/svg" viewBox="0 0 100 100"><path d="M87.6 27.8c-2.4 1.1-5 1.8-7.7 2.2 1.2-.2 3-2.4 3.8-3.4 1.1-1.4 2-3 2.5-4.6.1-.1.1-.3 0-.4-.1-.1-.3-.1-.4 0-2.9 1.5-5.9 2.7-9.1 3.5-.2.1-.5 0-.6-.2-.2-.3-.5-.6-.8-.8-1.3-1.1-2.8-2-4.4-2.7-2.1-.9-4.4-1.2-6.8-1.1-2.2.2-4.4.8-6.4 1.8s-3.7 2.5-5.2 4.2c-1.5 1.8-2.5 3.9-3.1 6.2-.5 2.1-.5 4.4-.2 6.5 0 .4 0 .4-.3.4-12.5-1.9-22.8-6.3-31.2-15.9-.4-.4-.6-.4-.9 0-3.7 5.5-1.9 14.4 2.7 18.7.6.6 1.2 1.2 1.9 1.7-2.1-.2-4.1-.7-6-1.7-.2-.2-.4-.1-.4.4 0 .6 0 1.2.1 1.8.7 5.7 4.5 10.6 9.8 12.8.6.3 1.3.5 2 .6-1.9.3-3.9.4-5.9.1-.4-.1-.6.1-.4.5 2.6 7.1 8.2 9.2 12.4 10.4.6.1 1.1.1 1.7.2 0 0-.1 0-.1.1-1.4 2.1-6.2 3.7-8.5 4.5-4.1 1.5-8.5 2-12.9 1.7-.7-.1-.8-.1-1 0s0 .3.2.5c.9.6 1.8 1.1 2.7 1.6 2.7 1.5 5.6 2.6 8.6 3.4 15.5 4.3 32.9 1.2 44.5-10.4 9.1-9.1 12.3-21.6 12.3-34.1 0-.5.6-.8.9-1 2.3-1.8 4.4-4 6.1-6.4.3-.3.4-.8.4-1.2v-.1l-.3.2z" fill="#f1f1f1"/></svg>