<svg xmlns="http://www.w3.org/2000/svg" viewBox="0 0 256 83"><path d="M132.4 26.4c-.1 11.5 10.3 17.9 18.1 21.8 8.1 3.9 10.8 6.4 10.7 9.9-.1 5.4-6.4 7.7-12.4 7.8-10.4.2-16.4-2.8-21.2-5.1l-3.7 17.5c4.8 2.2 13.7 4.2 23 4.2 21.7 0 35.9-10.7 36-27.4.1-21.1-29.2-22.3-29-31.7.1-2.9 2.8-5.9 8.8-6.7 3-.4 11.1-.7 20.4 3.6l3.6-17c-5-1.8-11.4-3.6-19.4-3.6-20.4.3-34.8 11.2-34.9 26.7m89.2-24.9c-4 0-7.3 2.3-8.8 5.9l-31 74.1h21.7l4.3-11.9h26.5l2.5 11.9H256l-16.7-80h-17.7m3.1 21.6l6.3 30h-17.2l10.9-30M106.1 1.5L89 81.4h20.7l17.1-80h-20.7m-30.6.1L53.9 55.9 45.2 9.6c-1-5.2-5.1-8.1-9.5-8.1H.5L0 3.8c7.2 1.6 15.4 4.1 20.4 6.8 3 1.7 3.9 3.1 4.9 7l16.5 63.8h21.9l33.5-80H75.5" fill="#f1f1f1"/></svg>